<svg xmlns="http://www.w3.org/2000/svg" width="638" height="530" viewBox="0 0 638 530" role="img" aria-label="Examples per decision pattern">
<style>.t{font:600 15px ui-monospace,SFMono-Regular,'SF Mono',Menlo,Consolas,monospace;fill:#e6edf3}.s{font:11px ui-monospace,SFMono-Regular,'SF Mono',Menlo,Consolas,monospace;fill:#6e7681}.l{font:12.5px -apple-system,BlinkMacSystemFont,'Segoe UI',Helvetica,Arial,sans-serif;fill:#8b949e}.n{font:600 12px ui-monospace,SFMono-Regular,'SF Mono',Menlo,Consolas,monospace;fill:#e6edf3}.g{font:italic 11px -apple-system,BlinkMacSystemFont,'Segoe UI',Helvetica,Arial,sans-serif;fill:#6e7681}</style>
<text x="12" y="22" class="t">Examples per decision pattern</text>
<text x="12" y="40" class="s">1207 entries · 18 of 18 patterns covered · 2026-10-07</text>
<line x1="12" y1="50" x2="626" y2="50" stroke="#30363d" stroke-width="1"/>
<text x="12" y="74" class="l">Tool selection</text>
<rect x="168" y="65" width="380" height="11" rx="1" fill="#21262d"/>
<path d="M168 65h192a2 2 0 0 1 2 2v7a2 2 0 0 1-2 2h-192z" fill="#f5a524"/>
<text x="560" y="75" class="n">230</text>
<text x="12" y="99" class="l">Intent routing</text>
<rect x="168" y="90" width="380" height="11" rx="1" fill="#21262d"/>
<path d="M168 90h27a2 2 0 0 1 2 2v7a2 2 0 0 1-2 2h-27z" fill="#8a5d14"/>
<text x="560" y="100" class="n">35</text>
<text x="12" y="124" class="l">Context compaction</text>
<rect x="168" y="115" width="380" height="11" rx="1" fill="#21262d"/>
<path d="M168 115h27a2 2 0 0 1 2 2v7a2 2 0 0 1-2 2h-27z" fill="#8a5d14"/>
<text x="560" y="125" class="n">34</text>
<text x="12" y="149" class="l">Safety gating</text>
<rect x="168" y="140" width="380" height="11" rx="1" fill="#21262d"/>
<path d="M168 140h114a2 2 0 0 1 2 2v7a2 2 0 0 1-2 2h-114z" fill="#f5a524"/>
<text x="560" y="150" class="n">138</text>
<text x="12" y="174" class="l">Output validation</text>
<rect x="168" y="165" width="380" height="11" rx="1" fill="#21262d"/>
<path d="M168 165h111a2 2 0 0 1 2 2v7a2 2 0 0 1-2 2h-111z" fill="#f5a524"/>
<text x="560" y="175" class="n">134</text>
<text x="12" y="199" class="l">Retry control</text>
<rect x="168" y="190" width="380" height="11" rx="1" fill="#21262d"/>
<path d="M168 190h3a2 2 0 0 1 2 2v7a2 2 0 0 1-2 2h-3z" fill="#8a5d14"/>
<text x="560" y="200" class="n">6</text>
<text x="12" y="224" class="l">Human escalation</text>
<rect x="168" y="215" width="380" height="11" rx="1" fill="#21262d"/>
<path d="M168 215h54a2 2 0 0 1 2 2v7a2 2 0 0 1-2 2h-54z" fill="#8a5d14"/>
<text x="560" y="225" class="n">67</text>
<text x="12" y="249" class="l">Model routing</text>
<rect x="168" y="240" width="380" height="11" rx="1" fill="#21262d"/>
<path d="M168 240h34a2 2 0 0 1 2 2v7a2 2 0 0 1-2 2h-34z" fill="#8a5d14"/>
<text x="560" y="250" class="n">43</text>
<text x="12" y="274" class="l">Speculative fan-out</text>
<rect x="168" y="265" width="380" height="11" rx="1" fill="#21262d"/>
<path d="M168 265h25a2 2 0 0 1 2 2v7a2 2 0 0 1-2 2h-25z" fill="#8a5d14"/>
<text x="560" y="275" class="n">32</text>
<text x="12" y="299" class="l">Search &amp; ranking</text>
<rect x="168" y="290" width="380" height="11" rx="1" fill="#21262d"/>
<path d="M168 290h52a2 2 0 0 1 2 2v7a2 2 0 0 1-2 2h-52z" fill="#8a5d14"/>
<text x="560" y="300" class="n">64</text>
<text x="12" y="324" class="l">Structured extraction</text>
<rect x="168" y="315" width="380" height="11" rx="1" fill="#21262d"/>
<path d="M168 315h11a2 2 0 0 1 2 2v7a2 2 0 0 1-2 2h-11z" fill="#8a5d14"/>
<text x="560" y="325" class="n">16</text>
<text x="12" y="349" class="l">Classification</text>
<rect x="168" y="340" width="380" height="11" rx="1" fill="#21262d"/>
<path d="M168 340h98a2 2 0 0 1 2 2v7a2 2 0 0 1-2 2h-98z" fill="#f5a524"/>
<text x="560" y="350" class="n">119</text>
<text x="12" y="374" class="l">ML feature extraction</text>
<rect x="168" y="365" width="380" height="11" rx="1" fill="#21262d"/>
<path d="M168 365h5a2 2 0 0 1 2 2v7a2 2 0 0 1-2 2h-5z" fill="#8a5d14"/>
<text x="560" y="375" class="n">8</text>
<text x="12" y="399" class="l">Document triage</text>
<rect x="168" y="390" width="380" height="11" rx="1" fill="#21262d"/>
<path d="M168 390h15a2 2 0 0 1 2 2v7a2 2 0 0 1-2 2h-15z" fill="#8a5d14"/>
<text x="560" y="400" class="n">20</text>
<text x="12" y="424" class="l">Support triage</text>
<rect x="168" y="415" width="380" height="11" rx="1" fill="#21262d"/>
<path d="M168 415h5a2 2 0 0 1 2 2v7a2 2 0 0 1-2 2h-5z" fill="#8a5d14"/>
<text x="560" y="425" class="n">8</text>
<text x="12" y="449" class="l">Content scoring</text>
<rect x="168" y="440" width="380" height="11" rx="1" fill="#21262d"/>
<path d="M168 440h136a2 2 0 0 1 2 2v7a2 2 0 0 1-2 2h-136z" fill="#f5a524"/>
<text x="560" y="450" class="n">164</text>
<text x="12" y="474" class="l">Recommendation</text>
<rect x="168" y="465" width="380" height="11" rx="1" fill="#21262d"/>
<path d="M168 465h1a2 2 0 0 1 2 2v7a2 2 0 0 1-2 2h-1z" fill="#8a5d14"/>
<text x="560" y="475" class="n">1</text>
<text x="12" y="499" class="l">Overview</text>
<rect x="168" y="490" width="380" height="11" rx="1" fill="#21262d"/>
<path d="M168 490h378a2 2 0 0 1 2 2v7a2 2 0 0 1-2 2h-378z" fill="#f5a524"/>
<text x="560" y="500" class="n">451</text>
</svg>